<svg width="392" height="96" viewBox="0 0 392 96" fill="none" xmlns="http://www.w3.org/2000/svg">
    <g clip-path="url(#clip0_4119_5807)">
        <path d="M119.106 61.3125L110.96 56.6076H110.954C110.847 56.5416 110.723 56.5113 110.599 56.5113C110.473 56.5113 110.349 56.5444 110.239 56.6076L109.556 57.0011L108.426 57.6559C108.426 57.6559 108.412 57.6642 108.406 57.6669L106.497 58.7702L96.8889 64.3143C96.8889 64.3143 96.8669 64.3281 96.8559 64.3336C96.5312 64.5124 96.1323 64.273 96.1323 63.9016V48.9698C96.1323 48.912 96.1625 48.857 96.2148 48.8267L109.768 41.0045L110.024 40.8586L110.797 40.4102L110.962 40.3166L119.101 35.609C120.028 35.0779 120.581 34.1205 120.584 33.0502C120.584 31.9799 120.034 31.0196 119.104 30.4804L99.0102 18.8915C98.2316 18.443 97.3814 18.1431 96.5037 18.0055C96.3056 17.9752 96.1268 18.1348 96.1268 18.3357V31.2122C96.1268 31.314 96.036 31.3911 95.9369 31.3746C95.7856 31.3498 95.6067 31.3305 95.4086 31.3305C95.2105 31.3305 95.0345 31.3498 94.8804 31.3746C94.7813 31.3911 94.6905 31.314 94.6905 31.2122V18.3357C94.6905 18.1348 94.5117 17.9725 94.3136 18.0055C93.4331 18.1431 92.583 18.443 91.8071 18.8915L71.5953 30.5546C70.8221 31.0031 70.1425 31.5892 69.584 32.2825C69.4547 32.4421 69.5015 32.6787 69.6803 32.7805L69.9747 32.9511L74.3109 35.4549L80.2237 38.8721H80.2264L80.9418 39.2848L80.8317 39.2105C80.9198 39.2601 80.9418 39.3756 80.8785 39.4554C80.7822 39.5737 80.6777 39.7168 80.5814 39.8846C80.4796 40.058 80.4053 40.2231 80.3502 40.3689C80.3145 40.4652 80.2017 40.5037 80.1136 40.4514L79.5056 40.113L69.8839 34.5552L69.2621 34.1947H69.2593L68.9649 34.0242C68.7889 33.9224 68.5605 33.9994 68.489 34.1892C68.167 35.0174 68.002 35.9006 68.002 36.7921V60.1349C68.002 61.0291 68.167 61.9123 68.489 62.7405C68.5632 62.9304 68.7889 63.0074 68.9649 62.9056L69.2648 62.7323L69.8867 62.3746L73.2104 60.4514L79.5111 56.8168L80.1136 56.4673C80.2017 56.4178 80.3145 56.4563 80.3502 56.5499C80.4053 56.6957 80.4768 56.858 80.5759 57.0286C80.6749 57.1992 80.7795 57.345 80.8785 57.4661C80.9418 57.5431 80.9198 57.6614 80.8317 57.711L80.2319 58.0576H80.2292L70.6048 63.6182L69.9802 63.9759L69.6858 64.1492C69.5097 64.251 69.4629 64.4877 69.5895 64.6472C70.148 65.3378 70.8331 65.9266 71.6035 66.3751L91.8126 78.0438C92.5857 78.4895 93.4331 78.7867 94.3136 78.9242C94.5144 78.9545 94.696 78.7977 94.696 78.5941V65.8001C94.696 65.6983 94.7868 65.6212 94.8859 65.6377C95.0372 65.6625 95.216 65.6818 95.4141 65.6818C95.6123 65.6818 95.7883 65.6625 95.9424 65.6377C96.0415 65.6212 96.1323 65.6983 96.1323 65.8001V78.5941C96.1323 78.7977 96.3139 78.9573 96.5147 78.9242C97.3924 78.7867 98.2426 78.4895 99.0157 78.0438L119.106 66.4467C120.034 65.9074 120.587 64.9471 120.587 63.8741C120.587 62.801 120.034 61.8491 119.112 61.3153L119.106 61.3125ZM96.1268 47.2226V33.0116C96.1268 32.643 96.5257 32.4091 96.8476 32.5907L96.8586 32.5962C96.8586 32.5962 96.8751 32.6044 96.8834 32.6099L108.47 39.2986C108.47 39.2986 108.475 39.2986 108.475 39.3013C108.775 39.4857 108.756 39.9314 108.453 40.1047L96.1268 47.2171V47.2226ZM94.6933 47.2226L82.3835 40.1158C82.0644 39.9314 82.0616 39.4747 82.3753 39.2848L93.9366 32.6127C93.9366 32.6127 93.9504 32.6044 93.9559 32.6017L93.9669 32.5962C94.2888 32.4118 94.6905 32.643 94.6905 33.0144V47.2254L94.6933 47.2226ZM80.9445 55.1136V41.8134C80.9445 41.618 80.9638 41.4254 81.0023 41.2383C81.0271 41.1228 81.1536 41.0622 81.2554 41.1228L93.9779 48.4663L81.6847 55.5621C81.3628 55.7465 80.9528 55.5236 80.9473 55.1549C80.9473 55.1411 80.9473 55.1301 80.9473 55.1164L80.9445 55.1136ZM93.9366 64.3171L82.4193 57.6669C82.4193 57.6669 82.3973 57.6532 82.3863 57.6477C82.0671 57.4578 82.0781 56.9901 82.4 56.803L94.6933 49.7071V63.9016C94.6933 64.273 94.2943 64.5179 93.9724 64.3363C93.9614 64.3308 93.9477 64.3226 93.9366 64.3171Z" fill="#104AEF"/>
        <path d="M147.011 62.8231C143.22 62.8231 139.987 61.4859 137.312 58.8115C134.638 56.1372 133.301 52.9043 133.301 49.1128C133.301 45.3214 134.638 42.0885 137.312 39.4142C139.987 36.7398 143.22 35.4026 147.011 35.4026C149.881 35.4026 152.467 36.217 154.77 37.8486C157.073 39.4774 158.702 41.5878 159.659 44.1741H154.079C152.415 41.6951 150.076 40.4542 147.063 40.4542C144.617 40.4542 142.581 41.2879 140.952 42.9525C139.324 44.6171 138.506 46.6724 138.506 49.1183C138.506 51.5643 139.329 53.5756 140.977 55.2567C142.625 56.9406 144.653 57.7798 147.063 57.7798C150.04 57.7798 152.343 56.5746 153.972 54.1672H159.659C158.702 56.7535 157.073 58.8445 154.77 60.4376C152.467 62.0307 149.881 62.8286 147.011 62.8286V62.8231Z" fill="black"/>
        <path d="M166.385 39.4114C169.059 36.7371 172.292 35.3999 176.083 35.3999C179.875 35.3999 183.108 36.7371 185.782 39.4114C188.456 42.0858 189.793 45.3187 189.793 49.1101C189.793 52.9015 188.456 56.1344 185.782 58.8088C183.108 61.4831 179.875 62.8203 176.083 62.8203C172.292 62.8203 169.059 61.4831 166.385 58.8088C163.71 56.1344 162.373 52.9015 162.373 49.1101C162.373 45.3187 163.71 42.0858 166.385 39.4114ZM176.138 40.4487C173.692 40.4487 171.656 41.2824 170.027 42.947C168.399 44.6116 167.581 46.6669 167.581 49.1128C167.581 51.5588 168.404 53.5701 170.052 55.2512C171.7 56.9351 173.728 57.7743 176.138 57.7743C178.549 57.7743 180.557 56.9433 182.169 55.276C183.782 53.6114 184.588 51.5561 184.588 49.1101C184.588 46.6641 183.782 44.6116 182.169 42.9442C180.557 41.2796 178.546 40.4459 176.138 40.4459V40.4487Z" fill="black"/>
        <path d="M195.906 32.1559C194.984 32.1559 194.222 31.845 193.619 31.226C193.017 30.6069 192.717 29.853 192.717 28.9671C192.717 28.0811 193.017 27.33 193.619 26.7082C194.222 26.0891 194.984 25.7782 195.906 25.7782C196.827 25.7782 197.534 26.0891 198.137 26.7082C198.74 27.3272 199.04 28.0811 199.04 28.9671C199.04 29.853 198.737 30.6069 198.137 31.226C197.534 31.845 196.789 32.1559 195.906 32.1559ZM193.303 62.3966V35.8236H198.511V62.3966H193.303Z" fill="black"/>
        <path d="M220.938 62.3994V48.4222C220.938 43.1065 218.776 40.4514 214.453 40.4514C210.131 40.4514 207.968 43.1093 207.968 48.4222V62.3994H202.76V48.4222C202.76 44.0998 203.822 40.8476 205.949 38.6685C208.075 36.4894 210.909 35.3999 214.453 35.3999C217.997 35.3999 220.831 36.4894 222.958 38.6685C225.085 40.8476 226.147 44.0998 226.147 48.4222V62.3994H220.938Z" fill="black"/>
        <path d="M262.287 35.8236H267.603L258.834 62.3966H253.626L247.674 43.7421L241.723 62.3966H236.515L227.746 35.8236H233.062L239.12 55.5401L245.072 35.8236H250.28L256.231 55.5401L262.29 35.8236H262.287Z" fill="black"/>
        <path d="M271.453 58.8363C268.815 56.1784 267.494 52.9565 267.494 49.1623C267.494 45.3682 268.796 42.1298 271.401 39.4362C274.004 36.7453 277.201 35.3971 280.995 35.3971C284.789 35.3971 287.764 36.6105 290.455 39.0372C293.148 41.4639 294.565 44.6638 294.705 48.6313C294.705 49.5173 294.653 50.3152 294.546 51.0223H273.074C273.286 53.0061 274.128 54.6266 275.597 55.884C277.066 57.1414 278.866 57.7715 280.993 57.7715C283.615 57.7715 285.739 56.8855 287.37 55.1136L293.588 55.1659C292.419 57.4688 290.719 59.3205 288.487 60.721C286.256 62.1214 283.81 62.8203 281.152 62.8203C277.325 62.8203 274.092 61.4914 271.453 58.8335V58.8363ZM273.074 46.7714H289.123C288.628 44.9307 287.643 43.4147 286.173 42.2261C284.701 41.0402 283.029 40.4459 281.152 40.4459C279.133 40.4459 277.405 41.0292 275.971 42.1986C274.535 43.3679 273.569 44.8922 273.074 46.7686V46.7714Z" fill="black"/>
        <path d="M297.628 49.1101V25.1949H302.888V39.2271C305.048 36.6765 307.849 35.3999 311.286 35.3999C315.077 35.3999 318.31 36.737 320.984 39.4114C323.659 42.0858 324.996 45.3187 324.996 49.1101C324.996 52.9015 323.659 56.1344 320.984 58.8088C318.31 61.4831 315.077 62.8203 311.286 62.8203C307.494 62.8203 304.27 61.4831 301.612 58.8088C298.954 56.1344 297.625 52.9015 297.625 49.1101H297.628ZM311.286 40.4459C308.911 40.4459 306.9 41.2879 305.255 42.9717C303.607 44.6556 302.784 46.6999 302.784 49.1101C302.784 51.5203 303.598 53.6114 305.227 55.276C306.856 56.9406 308.875 57.7742 311.286 57.7742C313.696 57.7742 315.759 56.9433 317.372 55.276C318.984 53.6114 319.79 51.5561 319.79 49.1101C319.79 46.6641 318.976 44.6115 317.347 42.9442C315.718 41.2796 313.696 40.4459 311.288 40.4459H311.286Z" fill="black"/>
    </g>
    <defs>
        <clipPath id="clip0_4119_5807">
            <rect width="257" height="60.927" fill="white" transform="translate(68 18)"/>
        </clipPath>
    </defs>
</svg>
