<svg width="392" height="96" viewBox="0 0 392 96" fill="none" xmlns="http://www.w3.org/2000/svg">
    <path fill-rule="evenodd" clip-rule="evenodd" d="M98.7338 29.5807C94.4079 29.5807 92.4542 27.3479 93.3613 23.3709L93.3615 23.37C93.4313 23.0912 93.501 22.8124 93.6404 22.5336C94.687 20.3008 99.3618 19.3938 102.223 20.7893C104.246 21.8359 105.083 25.0454 103.897 27.3479C103.06 28.9527 101.525 29.5807 98.7338 29.5807ZM296.323 36.1781C294.027 39.0547 291.701 41.9694 289.495 45.2798C290.08 39.3207 290.016 33.605 289.952 27.9471V27.9466V27.9461V27.9456V27.9452V27.9447V27.9443V27.9438V27.9434V27.9429V27.9425C289.933 26.1823 289.913 24.4278 289.913 22.6733C289.983 21.4173 289.565 21.0685 288.378 21.1382C286.006 21.208 283.634 21.2778 281.261 21.1382C279.726 21.0685 279.238 21.4173 279.238 23.0919C279.308 34.6045 279.308 46.1171 279.308 57.6297C279.308 58.1073 279.251 58.6245 279.194 59.1426C279.052 60.4414 278.909 61.7457 279.657 62.4437C280.357 63.0443 281.668 62.9269 282.945 62.8126C283.449 62.7675 283.947 62.7228 284.401 62.7228C284.927 62.7228 285.5 62.7756 286.073 62.8284C287.479 62.9579 288.891 63.0879 289.634 62.4437C290.564 61.6238 290.336 59.9038 290.127 58.325C290.069 57.8891 290.013 57.464 289.983 57.0715C289.774 54.9783 290.681 53.7224 292.286 52.6758C293.123 52.1176 293.472 52.2571 293.891 53.0246C294.295 53.7521 294.761 54.4588 295.23 55.1687L295.23 55.1693L295.231 55.1699C295.975 56.2981 296.726 57.4346 297.239 58.6763C298.705 62.0951 301.008 63.1415 304.565 62.7228C306.218 62.5285 307.87 62.571 309.569 62.6147L309.569 62.6147C310.31 62.6338 311.06 62.6531 311.822 62.6531C311.757 62.4917 311.723 62.3752 311.697 62.2897C311.667 62.1903 311.65 62.1327 311.613 62.0951C310.7 60.6763 309.786 59.2521 308.871 57.8254L308.859 57.807L308.851 57.7947L308.848 57.7893L308.847 57.7885C306.485 54.1058 304.113 50.4074 301.705 46.7451C301.077 45.6984 300.938 45.0007 301.844 44.0239C302.927 42.811 303.929 41.5444 304.935 40.2741C305.548 39.4982 306.164 38.7209 306.799 37.9536C307.681 36.8066 308.591 35.6875 309.564 34.4905L309.565 34.4897L309.57 34.483C310.135 33.7891 310.72 33.069 311.334 32.302C310.053 32.302 308.812 32.3101 307.597 32.318L307.596 32.318H307.596H307.595H307.594H307.594H307.593C305.238 32.3333 302.983 32.348 300.728 32.302C299.751 32.302 299.123 32.5811 298.565 33.3485C297.824 34.296 297.075 35.235 296.323 36.1781ZM126.713 32.2323C124.272 32.8603 122.318 34.186 120.295 36.8373C120.468 32.1028 118.013 32.1939 115.501 32.2872C114.977 32.3066 114.451 32.3261 113.945 32.3021C113.762 32.3021 113.571 32.3096 113.377 32.3173C112.981 32.3329 112.575 32.3489 112.2 32.3021C111.433 32.2323 111.084 32.4416 111.084 33.3487V61.6069C111.084 62.4444 111.364 62.6538 112.2 62.6538L112.272 62.6518C114.829 62.5827 117.318 62.5154 119.876 62.6538C121.341 62.7235 121.76 62.4444 121.76 60.9091C121.76 59.5679 121.74 58.2266 121.72 56.8867V56.8866V56.8865V56.8864V56.8863V56.8862V56.8861V56.886V56.8859V56.8858V56.8857C121.665 53.2072 121.611 49.5388 121.969 45.9079C122.108 44.4426 122.457 43.0472 123.295 41.7912C124.272 40.3958 125.667 40.0469 127.272 40.2562C128.807 40.4656 129.365 41.5122 129.784 42.8378C130.133 44.1635 130.133 45.4893 130.133 46.8149C130.133 48.3938 130.14 49.9805 130.148 51.5698C130.163 54.7561 130.179 57.9528 130.133 61.1184C130.133 62.1651 130.272 62.7235 131.528 62.6538C134.179 62.584 136.9 62.584 139.552 62.6538C140.529 62.7235 140.808 62.3747 140.808 61.3975C140.773 58.2926 140.773 55.1877 140.773 52.0828C140.773 48.9779 140.773 45.873 140.738 42.7681C140.668 40.326 140.25 37.9537 138.785 35.8605C136.412 32.4416 131.458 31.0461 126.713 32.2323ZM52.1956 56.5827V57.6293C52.1956 59.4909 52.1956 60.4327 51.7412 61.027C51.2758 61.6355 50.334 61.8797 48.4279 62.374C44.381 63.3509 40.2644 63.5601 36.1477 62.7927C30.1473 61.6064 26.0306 58.1177 24.1467 52.3265C22.1931 46.1865 22.1233 39.9766 24.4956 33.9064C26.9377 27.6268 31.7521 24.2776 38.3107 23.3706C43.2647 22.6729 48.1488 23.3706 52.8236 25.394L52.8853 25.4248C53.5495 25.7559 53.9973 25.9792 53.5911 26.8593C52.684 29.0222 51.8467 31.1852 51.0792 33.3482C50.7304 34.2552 50.3118 34.2552 49.4745 33.9064C47.2417 32.9295 44.9392 32.0922 42.4971 32.0225C38.5201 31.9527 36.078 33.6273 34.7523 37.395C33.5661 40.8139 33.4964 44.2328 34.2639 47.7214C35.45 53.0242 39.3573 55.3966 45.0787 54.2104C47.1021 53.7918 48.9861 53.2336 50.87 52.466C51.777 52.0474 52.2654 52.1172 52.1956 53.3033C52.1493 53.9986 52.1645 54.7246 52.1799 55.461V55.4611C52.1877 55.8332 52.1956 56.208 52.1956 56.5827ZM148.413 61.9555C151.274 62.8624 154.204 63.1414 157.204 63.1414C159.227 63.1414 161.181 63.0717 163.065 62.6531C167.252 61.8159 170.113 59.0948 170.74 55.327C171.578 50.4429 169.973 47.024 165.787 44.861C164.456 44.1961 163.102 43.6302 161.738 43.0602C160.811 42.6731 159.88 42.284 158.949 41.8608C158.893 41.8377 158.837 41.8147 158.78 41.7914C157.978 41.4627 157.078 41.0938 157.274 40.1165C157.452 39.1626 158.345 39.1256 159.166 39.0915L159.167 39.0915L159.167 39.0915C159.307 39.0857 159.445 39.08 159.576 39.0698C159.744 39.028 159.911 39.0615 160.079 39.095C160.191 39.1173 160.302 39.1396 160.414 39.1396C162.317 39.3238 164.059 39.9945 165.829 40.6758C166.07 40.7686 166.312 40.8617 166.554 40.9537C167.461 41.3026 167.879 41.163 168.228 40.256C168.857 38.6512 169.484 37.1162 170.182 35.5811C170.601 34.6043 170.391 34.3252 169.484 33.9066C164.67 31.8832 159.646 31.325 154.483 32.3716C150.855 33.0694 147.924 34.9532 147.157 38.8605C146.529 42.4887 147.227 45.8379 150.506 48.1404C152.111 49.2567 153.924 50.0243 155.739 50.7917C157.135 51.3499 158.53 51.9779 159.856 52.6756C160.414 52.885 160.762 53.3733 160.693 54.0711C160.553 54.7688 159.995 54.9781 159.437 55.1177C158.809 55.2572 158.181 55.327 157.553 55.327C154.483 55.327 151.553 54.6293 148.762 53.5129C147.506 53.0245 146.878 52.9547 147.018 54.6293C147.157 56.5132 147.157 58.3273 147.018 60.2112C146.948 61.3275 147.436 61.6764 148.413 61.9555ZM358.361 37.3257C358.555 37.0781 358.736 36.8439 358.91 36.6198L358.91 36.6189L358.911 36.6186L358.911 36.6183L358.911 36.6174C359.421 35.9584 359.864 35.3861 360.384 34.8138C362.827 32.2322 365.827 31.4647 369.315 31.9531C370.013 32.0229 370.362 32.2322 370.292 32.9997C370.013 35.5813 369.734 38.1629 369.524 40.8143C369.455 41.861 369.106 42.2098 368.059 42.0005C366.664 41.7214 365.268 41.7214 363.873 42.0005C361.292 42.4889 359.827 43.8844 359.547 46.466C359.268 49.1205 359.299 51.8062 359.33 54.4814V54.4846C359.346 55.8163 359.361 57.1455 359.338 58.4669L359.335 58.6674C359.302 60.6037 359.286 61.5826 358.788 62.0774C358.28 62.5833 357.268 62.5833 355.221 62.5833C354.614 62.5833 354.007 62.5755 353.402 62.5677C352.2 62.5522 351.009 62.5369 349.849 62.5833C349.011 62.5833 348.802 62.3042 348.802 61.4672V33.209C348.802 32.302 349.151 32.1624 349.919 32.1624C351.802 32.2322 353.616 32.2322 355.501 32.1624C356.547 32.0927 356.896 32.5113 357.175 33.4184C357.402 34.4956 357.72 35.4347 358.094 36.5351L358.097 36.5429L358.097 36.5444L358.1 36.5515C358.184 36.8001 358.271 37.057 358.361 37.3257ZM93.447 42.9772C93.4393 44.489 93.4315 46.0008 93.4315 47.5125C93.4315 52.1176 93.4315 56.7226 93.5013 61.2579C93.5013 62.3042 93.7106 62.7228 94.827 62.6531C97.4086 62.5833 100.06 62.5833 102.642 62.6531C103.688 62.7228 104.107 62.4438 104.107 61.2579C104.037 52.1874 104.037 43.0471 104.107 33.9067C104.107 32.7206 103.828 32.2322 102.572 32.3019C100.13 32.3717 97.6179 32.3717 95.1061 32.3019C93.7804 32.2322 93.4315 32.581 93.4315 33.9067C93.478 36.9302 93.4625 39.9537 93.447 42.9772ZM186.997 59.7923C187.407 63.1182 187.371 66.3548 187.336 69.5604C187.317 71.2641 187.298 72.9591 187.346 74.654C187.346 75.7007 186.858 75.7704 186.09 75.7704C185.209 75.7704 184.32 75.7627 183.428 75.755H183.428H183.428H183.427H183.427H183.427C181.636 75.7395 179.836 75.7238 178.067 75.7704C176.88 75.8402 176.741 75.2821 176.741 74.3052V52.187V33.9064C176.741 32.7202 176.95 32.2318 178.276 32.3714C180.09 32.5109 181.904 32.5109 183.648 32.3714C185.114 32.2318 185.741 32.79 186.09 34.1157C186.2 34.4822 186.349 34.8486 186.505 35.2353L186.506 35.236L186.506 35.2363L186.506 35.2366L186.506 35.2372L186.506 35.2381C186.648 35.5868 186.796 35.952 186.928 36.3485C187.157 36.0986 187.367 35.8611 187.568 35.6342C188.041 35.1009 188.462 34.626 188.951 34.1855C193.346 30.348 200.463 31.255 203.324 36.3485C207.162 43.256 207.232 50.5822 203.883 57.5595C200.742 64.0485 193.207 65.1649 187.834 60.3505C187.662 60.2644 187.543 60.1784 187.379 60.0597C187.277 59.9859 187.158 59.8994 186.997 59.7923ZM195.231 47.3732C195.231 48.978 195.091 50.6525 194.603 52.1876C194.114 53.583 193.277 54.4901 191.742 54.6297C190.208 54.7692 188.882 54.1412 188.323 52.7458C186.927 49.1873 186.858 45.6289 188.323 42.0704C188.882 40.675 190.208 40.2564 191.673 40.3261C193.068 40.3959 193.975 41.0238 194.533 42.2798C195.161 43.8845 195.3 45.6289 195.231 47.3732ZM250.004 62.8631C254.887 63.8399 259.422 63.1422 262.702 58.816C263.151 59.3249 263.407 59.9879 263.653 60.6232L263.653 60.6235C263.98 61.4689 264.287 62.2652 265.004 62.584C265.938 62.9279 267.01 62.8567 268.098 62.7845C268.555 62.7541 269.016 62.7236 269.47 62.7236C269.636 62.7236 269.793 62.7156 269.948 62.7077C270.25 62.6923 270.542 62.6774 270.865 62.7236C271.773 62.8631 272.121 62.584 272.121 61.6069C272.067 58.9775 272.087 56.3375 272.106 53.6952C272.137 49.5364 272.168 45.3717 271.912 41.2331C271.633 37.3956 269.749 34.3953 266.051 33.1394C259.632 30.9067 253.283 31.9532 247.073 34.3953C246.377 34.6484 246.541 35.0161 246.734 35.4466C246.754 35.4909 246.774 35.5359 246.794 35.5814C247.024 36.1112 247.262 36.641 247.5 37.1708L247.501 37.1737L247.502 37.174C247.984 38.2479 248.466 39.3219 248.887 40.3958C249.305 41.5122 249.725 41.7913 250.91 41.2331C252.934 40.2563 255.027 39.6981 257.26 39.4888C259.492 39.2794 261.027 40.2563 261.377 42.0704C261.586 42.9774 261.446 43.4658 260.33 43.4658C259.935 43.4774 259.54 43.4871 259.144 43.4968C257.167 43.5453 255.19 43.5937 253.213 43.8845C247.003 44.7915 244.003 47.5127 243.514 52.8853C243.096 57.7694 245.608 61.9558 250.004 62.8631ZM261.585 51.3497C261.655 49.8845 261.515 48.8379 259.841 49.3961C258.376 49.3961 257.05 49.5357 255.863 50.3031C254.538 51.0706 253.98 52.6755 254.538 54.0709C255.096 55.6757 256.422 55.885 257.817 55.6757C260.05 55.3966 261.445 53.6522 261.585 51.3497ZM230.397 50.4429H222.233C221.257 50.4429 221.048 50.722 221.327 51.629C222.024 53.7222 223.42 54.9084 225.514 55.3271C229.141 56.0248 232.56 55.2572 235.91 53.9316C236.815 53.5833 237.268 53.4088 237.495 53.5645C237.723 53.7206 237.723 54.2091 237.723 55.1875C237.723 55.6294 237.715 56.0713 237.708 56.5132C237.692 57.397 237.677 58.2808 237.723 59.1645C237.863 60.4903 237.444 61.1182 236.119 61.6066C230.606 63.5601 225.024 63.6997 219.512 62.095C214.977 60.6995 212.116 57.49 210.93 52.8152C209.954 48.8381 210.093 44.8611 211.28 40.9538C212.745 35.9998 217.141 32.4414 222.373 32.0227C225.514 31.7436 228.653 31.7436 231.653 32.86C236.537 34.6741 238.91 38.4419 239.398 43.4656C239.529 44.6858 239.523 45.9332 239.518 47.1739C239.514 47.9196 239.511 48.6629 239.537 49.3963C239.607 50.3731 239.119 50.5127 238.282 50.5127C235.7 50.4429 233.049 50.4429 230.397 50.4429ZM225.583 43.745C225.234 43.745 224.885 43.7372 224.536 43.7295C223.838 43.714 223.14 43.6985 222.442 43.745C221.606 43.8148 221.327 43.4659 221.466 42.6286C221.815 40.675 223.489 39.2795 225.513 39.2097C227.606 39.14 229.28 40.3261 229.769 42.2798C230.048 43.2566 229.909 43.8845 228.723 43.745C227.97 43.698 227.249 43.7144 226.559 43.73H226.559H226.559H226.559C226.226 43.7376 225.901 43.745 225.583 43.745ZM331.002 50.4582C331.87 50.4505 332.735 50.4428 333.593 50.4428H341.756C342.733 50.4428 343.081 50.1637 343.011 49.1869C342.942 48.2449 342.942 47.303 342.942 46.3698C342.942 45.4365 342.942 44.512 342.872 43.605C342.454 38.4418 340.011 34.6042 334.988 32.7902C332.058 31.7436 328.918 31.7436 325.847 32.0226C320.615 32.5111 316.149 35.9997 314.684 40.9537C313.498 44.8609 313.358 48.838 314.335 52.8151C315.451 57.4899 318.312 60.7693 322.847 62.1647C328.15 63.8392 333.593 63.5601 338.965 61.9554C340.64 61.467 341.267 60.5599 341.058 58.8156C340.919 57.6295 340.919 56.3735 341.058 55.1874C341.198 53.5128 340.64 53.3733 339.244 54.0012C335.895 55.3967 332.476 56.0247 328.848 55.3967C326.894 55.0478 325.499 53.9315 324.732 52.0476C324.243 50.9312 324.312 50.373 325.777 50.4428C327.501 50.4893 329.256 50.4737 331.001 50.4582L331.002 50.4582ZM325.707 43.745H328.847C329.893 43.6752 330.94 43.6752 331.917 43.745C333.173 43.8845 333.243 43.1868 332.963 42.2798C332.475 40.3261 330.801 39.14 328.707 39.2097C326.684 39.2795 325.079 40.675 324.731 42.6286C324.591 43.5357 324.87 43.8148 325.707 43.745ZM72.7079 63.1422C62.4515 63.2119 57.2184 56.025 57.5673 46.5359C57.7069 43.396 58.265 40.326 60.1489 37.6049C63.2887 33.0696 67.8936 31.7439 73.0569 31.8136C81.7087 31.9532 87.4301 37.5351 87.7092 46.1869C87.8488 50.0943 87.3603 53.8621 85.1276 57.2111C82.4065 61.3278 78.4294 63.1422 72.7079 63.1422ZM76.9643 47.5825C77.0341 49.3269 76.8248 51.0712 76.1968 52.7458C75.6386 54.2808 74.5222 55.2576 72.7779 55.3274C71.0336 55.3971 69.7079 54.5599 69.1497 52.8853C67.8938 49.3967 67.8938 45.8382 69.0799 42.2798C69.6381 40.6052 70.9638 39.7679 72.7082 39.8377C74.4525 39.8377 75.6386 40.8145 76.2666 42.4193C76.8946 44.0939 77.0341 45.8382 76.9643 47.5825Z" fill="#D93234"/>
</svg>
