<svg width="474" height="56" viewBox="0 0 474 56" fill="none" xmlns="http://www.w3.org/2000/svg">
<path d="M24.8208 8.6458V23.8733H40.0566V8.6458H48.8774V47.1154H40.0566V30.2849H24.8208V47.1154H16V8.6458H24.8208ZM98.5943 8.6458V15.8588H77.7453V23.8733H96.1887V30.2849H77.7453V39.9023H98.5943V47.1154H69.7264V8.6458H98.5943ZM134.439 8.6458C136.791 8.63412 139.126 9.04121 141.335 9.84798C143.452 10.616 145.37 11.8483 146.948 13.4545C148.55 15.1286 149.78 17.1224 150.557 19.3051C151.509 22.0066 151.971 24.8565 151.92 27.7203C151.923 30.326 151.545 32.9181 150.797 35.4142C150.163 37.6694 149.071 39.7701 147.59 41.5854C146.096 43.3128 144.232 44.6824 142.137 45.5926C139.716 46.6738 137.09 47.2205 134.439 47.1955H117.84V8.6458H134.439ZM133.316 39.9023C134.515 39.9134 135.708 39.7238 136.844 39.3413C137.997 38.9474 139.04 38.2886 139.892 37.4178C140.866 36.3869 141.605 35.1562 142.057 33.8113C142.626 32.1073 142.897 30.3179 142.858 28.5217C142.877 26.7693 142.689 25.0207 142.297 23.3123C141.976 21.8603 141.347 20.494 140.453 19.3051C139.575 18.1696 138.413 17.2851 137.085 16.7404C135.416 16.1368 133.646 15.8645 131.873 15.939H125.858V39.9825L133.316 39.9023ZM194.019 46.8749C192.294 47.6071 190.44 47.9885 188.566 47.997C185.843 48.0449 183.139 47.5263 180.627 46.4742C178.371 45.53 176.347 44.1082 174.693 42.3067C173.056 40.4616 171.802 38.3093 171.005 35.9752C170.134 33.4765 169.7 30.8469 169.722 28.2012C169.689 25.4761 170.123 22.7654 171.005 20.1867C171.804 17.8294 173.057 15.6513 174.693 13.7751C176.337 11.9426 178.362 10.4927 180.627 9.5274C183.136 8.46383 185.842 7.9448 188.566 8.00464C190.471 8.00951 192.364 8.30684 194.179 8.88624C196.001 9.43782 197.711 10.306 199.231 11.4509C200.791 12.6459 202.083 14.1552 203.022 15.881C203.962 17.6068 204.528 19.5106 204.684 21.469H196.264C195.913 19.5709 194.888 17.8634 193.377 16.6603C191.866 15.5629 190.032 14.999 188.165 15.0574C186.492 15.0138 184.835 15.4002 183.354 16.1794C182.059 16.8916 180.957 17.9096 180.146 19.1448C179.316 20.4185 178.718 21.8296 178.382 23.3123C178.009 24.888 177.82 26.5018 177.821 28.121C177.813 29.7143 178.001 31.3024 178.382 32.8496C178.722 34.306 179.32 35.6901 180.146 36.937C180.97 38.1408 182.07 39.1301 183.354 39.8222C184.835 40.6014 186.492 40.9878 188.165 40.9442C190.945 40.9442 193.083 40.2496 194.58 38.8604C196.131 37.4178 197.013 35.3608 197.226 32.6893H189.208V26.2777H205.245V47.1154H199.873L199.071 42.7875C197.764 44.5391 196.022 45.9201 194.019 46.7948V46.8749ZM254.16 8.6458V15.8588H234.113V23.8733H252.557V30.2849H234.113V39.9023H254.16V47.1154H225.292V8.6458H254.16ZM273.566 8.6458L282.387 42.3067L291.849 8.6458H296.5L305.882 42.3067H306.042L314.783 8.6458H318.392L307.807 47.1154H303.877L294.094 12.6531H294.014L284.311 47.1154H280.382L269.717 8.6458H273.566ZM362.415 8.6458V11.8516H339.962V25.4762H360.811V28.682H339.962V43.9096H362.415V47.1154H335.953V8.6458H362.415ZM407.321 8.6458V11.8516H384.868V25.4762H406.519V28.682H384.868V43.9096H408.123V47.1154H380.858V8.6458H407.321ZM429.774 8.6458V29.4835L452.226 8.6458H457.198L440.118 24.6748L458 47.1154H453.349L437.311 27.1593L429.774 33.9716V47.1154H425.764V8.6458H429.774Z" fill="#EF8C00"/>
</svg>
