<svg width="32" height="32" viewBox="0 0 32 32" fill="none" xmlns="http://www.w3.org/2000/svg">
<path d="M0.846897 10.0333C1.33368 5.04792 5.31806 1.17702 10.3175 0.77696C12.3315 0.615794 14.3889 0.5 16.1381 0.5C17.8062 0.5 19.7546 0.605291 21.6787 0.754869C26.8047 1.15334 30.8446 5.20251 31.2405 10.3297C31.3924 12.2968 31.5 14.2936 31.5 16C31.5 17.7007 31.3931 19.69 31.242 21.6509C30.8462 26.7866 26.7941 30.8388 21.6583 31.2383C19.6883 31.3915 17.6935 31.5 16 31.5C14.2759 31.5 12.2653 31.3875 10.2968 31.23C5.30742 30.8306 1.33566 26.9629 0.848804 21.9862C0.646457 19.9178 0.5 17.7977 0.5 16C0.5 14.208 0.645534 12.0956 0.846897 10.0333Z" fill="white" stroke="#EBEEF2"/>
<path d="M14.1642 15.2565C14.2244 14.6404 14.7168 14.1621 15.3346 14.1126C15.5835 14.0927 15.8377 14.0784 16.0539 14.0784C16.26 14.0784 16.5008 14.0914 16.7385 14.1099C17.372 14.1591 17.8712 14.6595 17.9202 15.2931C17.9389 15.5362 17.9522 15.783 17.9522 15.9938C17.9522 16.204 17.939 16.4498 17.9203 16.6921C17.8714 17.3268 17.3707 17.8275 16.736 17.8769C16.4926 17.8958 16.2461 17.9092 16.0368 17.9092C15.8237 17.9092 15.5753 17.8953 15.332 17.8759C14.7154 17.8265 14.2246 17.3486 14.1645 16.7336C14.1395 16.478 14.1214 16.216 14.1214 15.9938C14.1214 15.7724 14.1393 15.5113 14.1642 15.2565Z" fill="white" stroke="#EBEEF2" stroke-width="0.123576"/>
<path d="M16.0019 6.62402L25.3778 15.9999L16.0019 25.3759L6.62598 15.9999L16.0019 6.62402Z" fill="#FFCE45"/>
<path d="M15.9999 19.0592L6.61621 15.9993L15.9999 6.62354L25.3836 15.9993L15.9999 19.0592Z" fill="#FEBE44"/>
<path d="M9.88086 15.3873H14.1647L16.0007 13.3474L18.0406 15.3873H22.3245L16.0007 8.55371L9.88086 15.3873Z" fill="white"/>
<path opacity="0.42" d="M16 25.3751V6.62354L25.3758 15.9993L16 25.3751Z" fill="#D9A547"/>
</svg>
