<svg width="32" height="32" viewBox="0 0 32 32" fill="none" xmlns="http://www.w3.org/2000/svg">
<path d="M10.3175 0.77696C12.3315 0.615794 14.3889 0.5 16.1381 0.5C17.8062 0.5 19.7546 0.605291 21.6787 0.754869C26.8047 1.15334 30.8446 5.20251 31.2405 10.3297C31.3924 12.2968 31.5 14.2936 31.5 16C31.5 17.7007 31.3931 19.69 31.242 21.6509C30.8462 26.7866 26.7941 30.8388 21.6583 31.2383C19.6883 31.3915 17.6935 31.5 16 31.5C14.2759 31.5 12.2653 31.3875 10.2968 31.23C5.30742 30.8306 1.33566 26.9629 0.848804 21.9862C0.646457 19.9178 0.5 17.7977 0.5 16C0.5 14.208 0.645534 12.0956 0.846897 10.0333C1.33368 5.04792 5.31806 1.17702 10.3175 0.77696Z" fill="white" stroke="#EBEEF2"/>
<g clip-path="url(#clip0)">
<path fill-rule="evenodd" clip-rule="evenodd" d="M20.6938 11.1744C20.6313 11.1119 20.5938 11.0494 20.5938 10.9619C20.5938 10.8744 20.6313 10.8119 20.6938 10.7494C20.8188 10.6369 21.0187 10.6369 21.1562 10.7494C21.2188 10.8119 21.2563 10.8744 21.2563 10.9619C21.2563 11.0494 21.2188 11.1119 21.1562 11.1744C21.0938 11.2244 21.0062 11.2619 20.9312 11.2619C20.8437 11.2744 20.7563 11.2494 20.6938 11.1744Z" fill="#0D022B"/>
<path fill-rule="evenodd" clip-rule="evenodd" d="M19.8922 12.0377C19.8422 11.9752 19.8047 11.9127 19.8047 11.8252C19.8047 11.7377 19.8422 11.6752 19.8922 11.6127C20.0047 11.5002 20.2047 11.5002 20.3172 11.6127C20.3672 11.6752 20.4047 11.7377 20.4047 11.8252C20.4047 11.9127 20.3672 11.9752 20.3172 12.0377C20.2547 12.0877 20.1922 12.1252 20.1047 12.1252C20.0172 12.1252 19.9547 12.0877 19.8922 12.0377Z" fill="#0D022B"/>
<path fill-rule="evenodd" clip-rule="evenodd" d="M19.0172 12.8619C18.9672 12.8119 18.9297 12.7369 18.9297 12.6494C18.9297 12.5619 18.9672 12.4994 19.0172 12.4369C19.1297 12.3244 19.3297 12.3244 19.4422 12.4369C19.4922 12.4869 19.5297 12.5619 19.5297 12.6494C19.5297 12.7369 19.4922 12.7994 19.4422 12.8619C19.3797 12.9244 19.3172 12.9494 19.2297 12.9494C19.1422 12.9494 19.0672 12.9119 19.0172 12.8619Z" fill="#0D022B"/>
<path fill-rule="evenodd" clip-rule="evenodd" d="M18.182 13.6998C18.1195 13.6498 18.082 13.5748 18.082 13.4873C18.082 13.3998 18.1195 13.3373 18.182 13.2748C18.307 13.1623 18.507 13.1623 18.6445 13.2748C18.707 13.3248 18.7445 13.3998 18.7445 13.4873C18.7445 13.5748 18.707 13.6498 18.6445 13.6998C18.582 13.7623 18.4945 13.7873 18.4195 13.7873C18.332 13.7873 18.257 13.7748 18.182 13.6998Z" fill="#0D022B"/>
<path fill-rule="evenodd" clip-rule="evenodd" d="M17.3805 14.5377C17.318 14.4877 17.293 14.4127 17.293 14.3252C17.293 14.2377 17.3305 14.1752 17.3805 14.1127C17.493 14.0002 17.693 14.0002 17.8055 14.1127C17.868 14.1627 17.893 14.2377 17.893 14.3252C17.893 14.4127 17.8555 14.4877 17.8055 14.5377C17.7555 14.6002 17.6805 14.6252 17.593 14.6252C17.518 14.6377 17.4305 14.6127 17.3805 14.5377Z" fill="#0D022B"/>
<path fill-rule="evenodd" clip-rule="evenodd" d="M16.418 15.1631C16.418 15.0756 16.4555 15.0131 16.5055 14.9506C16.618 14.8381 16.818 14.8381 16.9305 14.9506C16.993 15.0131 17.018 15.0756 17.018 15.1631C17.018 15.2506 16.9805 15.3131 16.9305 15.3756C16.8805 15.4256 16.8055 15.4631 16.718 15.4631C16.6305 15.4631 16.568 15.4256 16.5055 15.3756C16.443 15.3256 16.418 15.2506 16.418 15.1631Z" fill="#0D022B"/>
<path fill-rule="evenodd" clip-rule="evenodd" d="M14.857 17.0123C14.807 16.9623 14.7695 16.8873 14.7695 16.7998C14.7695 16.7123 14.807 16.6498 14.857 16.5873C14.9695 16.4748 15.1695 16.4748 15.282 16.5873C15.3445 16.6498 15.3695 16.7123 15.3695 16.7998C15.3695 16.8873 15.332 16.9498 15.282 17.0123C15.232 17.0748 15.157 17.0998 15.0695 17.0998C14.9945 17.1123 14.9195 17.0873 14.857 17.0123Z" fill="#0D022B"/>
<path fill-rule="evenodd" clip-rule="evenodd" d="M13.9945 17.8502C13.932 17.8002 13.8945 17.7252 13.8945 17.6377C13.8945 17.5502 13.932 17.4877 13.9945 17.4252C14.1195 17.3127 14.3195 17.3127 14.457 17.4252C14.5195 17.4877 14.557 17.5502 14.557 17.6377C14.557 17.7252 14.5195 17.7877 14.457 17.8502C14.3945 17.9127 14.307 17.9377 14.232 17.9377C14.132 17.9502 14.057 17.9127 13.9945 17.8502Z" fill="#0D022B"/>
<path fill-rule="evenodd" clip-rule="evenodd" d="M13.1813 18.6998C13.1313 18.6498 13.0938 18.5748 13.0938 18.4873C13.0938 18.3998 13.1313 18.3248 13.1813 18.2748C13.2937 18.1623 13.4937 18.1623 13.6062 18.2748C13.6562 18.3248 13.6937 18.3998 13.6937 18.4873C13.6937 18.5748 13.6562 18.6373 13.6062 18.6998C13.5437 18.7623 13.4812 18.7873 13.3937 18.7873C13.3063 18.7873 13.2562 18.7498 13.1813 18.6998Z" fill="#0D022B"/>
<path fill-rule="evenodd" clip-rule="evenodd" d="M12.3453 19.5377C12.2828 19.4877 12.2578 19.4127 12.2578 19.3252C12.2578 19.2377 12.2953 19.1752 12.3453 19.1127C12.4578 19.0002 12.6578 19.0002 12.7703 19.1127C12.8203 19.1752 12.8578 19.2377 12.8578 19.3252C12.8578 19.4127 12.8203 19.4877 12.7703 19.5377C12.7078 19.6002 12.6453 19.6252 12.5578 19.6252C12.4828 19.6252 12.3953 19.6002 12.3453 19.5377Z" fill="#0D022B"/>
<path fill-rule="evenodd" clip-rule="evenodd" d="M11.4828 20.3756C11.4203 20.3256 11.3828 20.2506 11.3828 20.1631C11.3828 20.0756 11.4203 20.0131 11.4828 19.9506C11.6078 19.8381 11.8078 19.8381 11.9203 19.9506C11.9828 20.0131 12.0203 20.0756 12.0203 20.1631C12.0203 20.2506 11.9828 20.3256 11.9203 20.3756C11.8578 20.4256 11.7703 20.4631 11.6953 20.4631C11.6078 20.4631 11.5328 20.4381 11.4828 20.3756Z" fill="#0D022B"/>
<path fill-rule="evenodd" clip-rule="evenodd" d="M10.6578 21.2125C10.5953 21.15 10.5703 21.0875 10.5703 21C10.5703 20.9125 10.6078 20.85 10.6578 20.7875C10.7703 20.675 10.9703 20.675 11.0828 20.7875C11.1453 20.85 11.1703 20.9125 11.1703 21C11.1703 21.0875 11.1328 21.15 11.0828 21.2125C11.0328 21.2625 10.9578 21.3 10.8703 21.3C10.8078 21.3125 10.7328 21.275 10.6578 21.2125Z" fill="#0D022B"/>
<path fill-rule="evenodd" clip-rule="evenodd" d="M11.0828 11.1744C11.1328 11.1119 11.1703 11.0494 11.1703 10.9619C11.1703 10.8744 11.1328 10.8119 11.0828 10.7494C10.9703 10.6369 10.7703 10.6369 10.6578 10.7494C10.5953 10.8119 10.5703 10.8744 10.5703 10.9619C10.5703 11.0494 10.6078 11.1119 10.6578 11.1744C10.7078 11.2244 10.7828 11.2619 10.8703 11.2619C10.9578 11.2744 11.0328 11.2494 11.0828 11.1744Z" fill="#0D022B"/>
<path fill-rule="evenodd" clip-rule="evenodd" d="M11.918 12.0377C11.9805 11.9752 12.018 11.9127 12.018 11.8252C12.018 11.7377 11.9805 11.6752 11.918 11.6127C11.793 11.5002 11.593 11.5002 11.4555 11.6127C11.393 11.6752 11.3555 11.7377 11.3555 11.8252C11.3555 11.9127 11.393 11.9752 11.4555 12.0377C11.518 12.0877 11.6055 12.1252 11.6805 12.1252C11.768 12.1127 11.8555 12.0877 11.918 12.0377Z" fill="#0D022B"/>
<path fill-rule="evenodd" clip-rule="evenodd" d="M12.7703 12.8619C12.8203 12.8119 12.8578 12.7369 12.8578 12.6494C12.8578 12.5619 12.8203 12.4994 12.7703 12.4369C12.6578 12.3244 12.4578 12.3244 12.3453 12.4369C12.2953 12.4869 12.2578 12.5619 12.2578 12.6494C12.2578 12.7369 12.2953 12.7994 12.3453 12.8619C12.4078 12.9244 12.4703 12.9494 12.5578 12.9494C12.6328 12.9494 12.7078 12.9119 12.7703 12.8619Z" fill="#0D022B"/>
<path fill-rule="evenodd" clip-rule="evenodd" d="M13.6062 13.6998C13.6562 13.6498 13.6937 13.5748 13.6937 13.4873C13.6937 13.3998 13.6562 13.3373 13.6062 13.2748C13.4937 13.1623 13.2937 13.1623 13.1813 13.2748C13.1313 13.3248 13.0938 13.3998 13.0938 13.4873C13.0938 13.5748 13.1313 13.6498 13.1813 13.6998C13.2437 13.7623 13.3063 13.7873 13.3937 13.7873C13.4687 13.7873 13.5437 13.7748 13.6062 13.6998Z" fill="#0D022B"/>
<path fill-rule="evenodd" clip-rule="evenodd" d="M14.432 14.5377C14.4945 14.4877 14.532 14.4127 14.532 14.3252C14.532 14.2377 14.4945 14.1752 14.432 14.1127C14.3195 14.0002 14.107 14.0002 13.9945 14.1127C13.932 14.1627 13.8945 14.2377 13.8945 14.3252C13.8945 14.4127 13.932 14.4877 13.9945 14.5377C14.057 14.6002 14.1445 14.6252 14.2195 14.6252C14.2945 14.6377 14.382 14.6127 14.432 14.5377Z" fill="#0D022B"/>
<path fill-rule="evenodd" clip-rule="evenodd" d="M15.3695 15.1631C15.3695 15.0756 15.332 15.0131 15.282 14.9506C15.1695 14.8381 14.9695 14.8381 14.857 14.9506C14.7945 15.0131 14.7695 15.0756 14.7695 15.1631C14.7695 15.2506 14.807 15.3131 14.857 15.3756C14.907 15.4256 14.982 15.4631 15.0695 15.4631C15.157 15.4631 15.2195 15.4256 15.282 15.3756C15.3445 15.3256 15.3695 15.2506 15.3695 15.1631Z" fill="#0D022B"/>
<path fill-rule="evenodd" clip-rule="evenodd" d="M16.118 16.2252C16.1805 16.1627 16.2055 16.1002 16.2055 16.0127C16.2055 15.9252 16.168 15.8627 16.118 15.8002C16.0055 15.6877 15.8055 15.6877 15.693 15.8002C15.6305 15.8627 15.6055 15.9252 15.6055 16.0127C15.6055 16.1002 15.643 16.1627 15.693 16.2252C15.743 16.2752 15.818 16.3127 15.9055 16.3127C15.993 16.3127 16.068 16.2752 16.118 16.2252Z" fill="#0D022B"/>
<path fill-rule="evenodd" clip-rule="evenodd" d="M16.9555 17.0123C17.018 16.9623 17.0555 16.8873 17.0555 16.7998C17.0555 16.7123 17.018 16.6498 16.9555 16.5873C16.8305 16.4748 16.6305 16.4748 16.518 16.5873C16.4555 16.6498 16.418 16.7123 16.418 16.7998C16.418 16.8873 16.4555 16.9498 16.518 17.0123C16.5805 17.0748 16.668 17.0998 16.743 17.0998C16.8055 17.1123 16.893 17.0873 16.9555 17.0123Z" fill="#0D022B"/>
<path fill-rule="evenodd" clip-rule="evenodd" d="M17.8055 17.8502C17.8555 17.8002 17.893 17.7252 17.893 17.6377C17.893 17.5502 17.8555 17.4877 17.8055 17.4252C17.693 17.3127 17.493 17.3127 17.3805 17.4252C17.3305 17.4877 17.293 17.5502 17.293 17.6377C17.293 17.7252 17.3305 17.7877 17.3805 17.8502C17.443 17.9127 17.5055 17.9377 17.593 17.9377C17.6555 17.9502 17.743 17.9127 17.8055 17.8502Z" fill="#0D022B"/>
<path fill-rule="evenodd" clip-rule="evenodd" d="M18.6453 18.6998C18.6953 18.6498 18.7328 18.5748 18.7328 18.4873C18.7328 18.3998 18.6953 18.3248 18.6453 18.2748C18.5328 18.1623 18.3328 18.1623 18.2203 18.2748C18.1703 18.3248 18.1328 18.3998 18.1328 18.4873C18.1328 18.5748 18.1703 18.6373 18.2203 18.6998C18.2828 18.7623 18.3453 18.7873 18.4328 18.7873C18.5203 18.7873 18.5828 18.7498 18.6453 18.6998Z" fill="#0D022B"/>
<path fill-rule="evenodd" clip-rule="evenodd" d="M19.4305 19.5377C19.493 19.4877 19.518 19.4127 19.518 19.3252C19.518 19.2377 19.4805 19.1752 19.4305 19.1127C19.318 19.0002 19.118 19.0002 19.0055 19.1127C18.9555 19.1752 18.918 19.2377 18.918 19.3252C18.918 19.4127 18.9555 19.4877 19.0055 19.5377C19.068 19.6002 19.1305 19.6252 19.218 19.6252C19.293 19.6252 19.3805 19.6002 19.4305 19.5377Z" fill="#0D022B"/>
<path fill-rule="evenodd" clip-rule="evenodd" d="M20.3172 20.3756C20.3797 20.3256 20.4047 20.2506 20.4047 20.1631C20.4047 20.0756 20.3672 20.0131 20.3172 19.9506C20.2047 19.8381 20.0047 19.8381 19.8922 19.9506C19.8297 20.0131 19.8047 20.0756 19.8047 20.1631C19.8047 20.2506 19.8422 20.3256 19.8922 20.3756C19.9422 20.4256 20.0172 20.4631 20.1047 20.4631C20.1922 20.4631 20.2672 20.4381 20.3172 20.3756Z" fill="#0D022B"/>
<path fill-rule="evenodd" clip-rule="evenodd" d="M21.1547 21.2125C21.2172 21.15 21.2547 21.0875 21.2547 21C21.2547 20.9125 21.2172 20.85 21.1547 20.7875C21.0297 20.675 20.8297 20.675 20.7172 20.7875C20.6547 20.85 20.6172 20.9125 20.6172 21C20.6172 21.0875 20.6547 21.15 20.7172 21.2125C20.7797 21.2625 20.8672 21.3 20.9422 21.3C21.0047 21.3125 21.0797 21.275 21.1547 21.2125Z" fill="#0D022B"/>
<path fill-rule="evenodd" clip-rule="evenodd" d="M13.0687 11.4125C13.9187 10.85 14.8563 10.5875 15.8938 10.575C16.9063 10.575 17.8438 10.85 18.7188 11.4125L20.5188 9.6125C19.1063 8.5375 17.5813 8 15.8938 8C14.2063 8 12.6562 8.5375 11.2812 9.6125L13.0687 11.4125Z" fill="#0D022B"/>
<path fill-rule="evenodd" clip-rule="evenodd" d="M11.2687 18.8006C10.6937 17.9256 10.4187 17.0006 10.4187 16.0006C10.4187 14.9881 10.6937 14.0506 11.2687 13.2006L9.48125 11.4131C8.43125 12.7881 7.90625 14.3131 7.90625 16.0131C7.90625 17.6881 8.43125 19.2256 9.49375 20.6256L11.2687 18.8006Z" fill="#0D022B"/>
<path fill-rule="evenodd" clip-rule="evenodd" d="M18.707 20.5869C17.857 21.1619 16.9195 21.4619 15.907 21.4744C14.8695 21.4744 13.9195 21.1994 13.0695 20.5994L11.2695 22.3869C12.657 23.4744 14.207 24.0119 15.907 23.9994C17.5945 23.9869 19.1195 23.4369 20.4945 22.3869L18.707 20.5869Z" fill="#0D022B"/>
<path fill-rule="evenodd" clip-rule="evenodd" d="M20.4688 13.1756C21.0438 14.0506 21.3438 15.0006 21.3188 16.0256C21.3063 17.0256 21.0188 17.9381 20.4688 18.7756L22.2688 20.5631C23.3313 19.1881 23.8813 17.6631 23.8813 15.9881C23.8938 14.2881 23.3563 12.7381 22.2688 11.3506L20.4688 13.1756Z" fill="#0D022B"/>
<path fill-rule="evenodd" clip-rule="evenodd" d="M22.3445 21.1494C23.032 21.1494 23.607 21.7119 23.607 22.4119C23.607 23.0994 23.0445 23.6744 22.3445 23.6744C21.657 23.6744 21.082 23.1119 21.082 22.4119C21.082 21.7119 21.6445 21.1494 22.3445 21.1494Z" fill="#0D022B"/>
<path fill-rule="evenodd" clip-rule="evenodd" d="M9.46875 21.1494C10.1562 21.1494 10.7187 21.7119 10.7187 22.4119C10.7187 23.0994 10.1562 23.6744 9.46875 23.6744C8.78125 23.6744 8.21875 23.1119 8.21875 22.4119C8.21875 21.7119 8.78125 21.1494 9.46875 21.1494Z" fill="#0D022B"/>
<path fill-rule="evenodd" clip-rule="evenodd" d="M22.3672 8.27441C23.0547 8.27441 23.6172 8.83691 23.6172 9.53691C23.6172 10.2369 23.0547 10.7994 22.3672 10.7994C21.6797 10.7994 21.1172 10.2369 21.1172 9.53691C21.1172 8.83691 21.6797 8.27441 22.3672 8.27441Z" fill="#0D022B"/>
<path fill-rule="evenodd" clip-rule="evenodd" d="M9.44219 8.27441C10.1297 8.27441 10.7047 8.83691 10.7047 9.52441C10.7047 10.2119 10.1422 10.7744 9.44219 10.7744C8.75469 10.7744 8.17969 10.2119 8.17969 9.52441C8.17969 8.83691 8.74219 8.27441 9.44219 8.27441Z" fill="#0D022B"/>
</g>
<defs>
<clipPath id="clip0">
<rect width="15.9625" height="16" fill="white" transform="translate(7.90625 8)"/>
</clipPath>
</defs>
</svg>
