<svg width="32" height="32" viewBox="0 0 32 32" fill="none" xmlns="http://www.w3.org/2000/svg">
<path d="M0.846897 10.0333C1.33368 5.04792 5.31806 1.17702 10.3175 0.77696C12.3315 0.615794 14.3889 0.5 16.1381 0.5C17.8062 0.5 19.7546 0.605291 21.6787 0.754869C26.8047 1.15334 30.8446 5.20251 31.2405 10.3297C31.3924 12.2968 31.5 14.2936 31.5 16C31.5 17.7007 31.3931 19.69 31.242 21.6509C30.8462 26.7866 26.7941 30.8388 21.6583 31.2383C19.6883 31.3915 17.6935 31.5 16 31.5C14.2759 31.5 12.2653 31.3875 10.2968 31.23C5.30742 30.8306 1.33566 26.9629 0.848804 21.9862C0.646457 19.9178 0.5 17.7977 0.5 16C0.5 14.208 0.645534 12.0956 0.846897 10.0333Z" fill="white" stroke="#EBEEF2"/>
<path d="M12.0062 14.4496H12.8658C13.0068 13.933 13.2112 13.4911 13.4787 13.1237C13.7463 12.7564 14.0609 12.4578 14.423 12.2279C14.7842 11.9979 15.1791 11.8286 15.6066 11.7194C16.034 11.6101 16.4777 11.5557 16.938 11.5557C17.4266 11.5557 17.8613 11.5879 18.2413 11.6516C18.6213 11.7153 18.9389 11.7916 19.1928 11.8794L18.6995 13.1182C18.4931 13.0449 18.2533 12.99 17.981 12.9534C17.7087 12.9167 17.389 12.8986 17.0227 12.8986C16.4589 12.8986 15.9729 13.0226 15.5642 13.2711C15.1556 13.5197 14.8525 13.9122 14.6551 14.4492H18.305L17.9387 15.6092H14.4298C14.4204 15.6744 14.4157 15.7396 14.4157 15.8047C14.4157 15.8699 14.4157 15.9351 14.4157 15.9999V16.3173H17.6566L17.2903 17.4773H14.6269C14.8145 18.0065 15.1154 18.4095 15.5288 18.6861C15.9417 18.9628 16.4867 19.1013 17.1633 19.1013C17.5578 19.1013 17.8981 19.0646 18.1849 18.9913C18.4717 18.918 18.7273 18.8246 18.953 18.7106L19.3334 19.9286C19.1924 20.0168 19.0235 20.0946 18.8265 20.1627C18.6294 20.2309 18.4226 20.2842 18.2063 20.3246C17.99 20.3646 17.7699 20.3942 17.5442 20.4146C17.3189 20.4342 17.1026 20.4446 16.8962 20.4446C15.8626 20.4446 14.9889 20.2068 14.2751 19.7301C13.5612 19.2535 13.0863 18.5032 12.8521 17.4776H11.5557L12.0062 16.3177H12.6969V16.0003C12.6969 15.9355 12.6969 15.8703 12.6969 15.8051C12.6969 15.7399 12.7016 15.6748 12.711 15.6096H11.5557L12.0062 14.4496Z" fill="#0C87F2"/>
<path d="M7.47922 21.2949C7.26101 21.4206 6.97427 21.3394 6.85436 21.1088C5.86493 19.2055 5.47969 17.0425 5.75705 14.9114C6.05477 12.6237 7.09934 10.5005 8.72874 8.87112C10.3581 7.24172 12.4813 6.19715 14.769 5.89943C16.9001 5.62207 19.0631 6.00731 20.9664 6.99674C21.197 7.11665 21.2782 7.40339 21.1525 7.6216L20.5568 8.65512C20.4341 8.86805 20.1601 8.93554 19.934 8.82066C18.4284 8.05572 16.7248 7.76019 15.0458 7.97869C13.2157 8.21687 11.5172 9.05252 10.2137 10.356C8.91014 11.6596 8.07449 13.3581 7.83631 15.1882C7.61781 16.8671 7.91334 18.5707 8.67828 20.0763C8.79316 20.3024 8.72566 20.5765 8.51274 20.6992L7.47922 21.2949Z" fill="#0C87F2"/>
<path d="M11.1542 24.9699C11.0285 25.1881 11.1097 25.4748 11.3403 25.5947C13.2436 26.5842 15.4066 26.9694 17.5377 26.692C19.8254 26.3943 21.9486 25.3498 23.578 23.7204C25.2074 22.091 26.2519 19.9678 26.5497 17.6801C26.827 15.549 26.4418 13.386 25.4524 11.4827C25.3324 11.252 25.0457 11.1709 24.8275 11.2966L23.794 11.8923C23.5811 12.015 23.5136 12.289 23.6284 12.5151C24.3934 14.0207 24.6889 15.7243 24.4704 17.4032C24.2322 19.2334 23.3966 20.9319 22.0931 22.2354C20.7895 23.539 19.091 24.3746 17.2609 24.6128C15.5819 24.8313 13.8784 24.5358 12.3728 23.7708C12.1466 23.6559 11.8726 23.7234 11.7499 23.9364L11.1542 24.9699Z" fill="#0C87F2"/>
</svg>
