<svg width="32" height="32" viewBox="0 0 32 32" fill="none" xmlns="http://www.w3.org/2000/svg">
<path d="M10.3175 0.77696C12.3315 0.615794 14.3889 0.5 16.1381 0.5C17.8062 0.5 19.7546 0.605291 21.6787 0.754869C26.8047 1.15334 30.8446 5.20251 31.2405 10.3297C31.3924 12.2968 31.5 14.2936 31.5 16C31.5 17.7007 31.3931 19.69 31.242 21.6509C30.8462 26.7866 26.7941 30.8388 21.6583 31.2383C19.6883 31.3915 17.6935 31.5 16 31.5C14.2759 31.5 12.2653 31.3875 10.2968 31.23C5.30742 30.8306 1.33566 26.9629 0.848804 21.9862C0.646457 19.9178 0.5 17.7977 0.5 16C0.5 14.208 0.645534 12.0956 0.846897 10.0333C1.33368 5.04792 5.31806 1.17702 10.3175 0.77696Z" fill="white" stroke="#EBEEF2"/>
<path d="M20.5383 13.2057C20.4613 13.2827 20.3579 13.3267 20.2501 13.3267H10.0311C9.67032 13.3267 9.48772 12.8867 9.73852 12.6249L11.4149 10.8891C11.4919 10.8099 11.5975 10.7637 11.7075 10.7637H21.9639C22.3269 10.7637 22.5095 11.2081 22.2521 11.4699L20.5383 13.2057ZM20.5383 20.9629C20.4613 21.0377 20.3579 21.0817 20.2501 21.0817H10.0311C9.67032 21.0817 9.48772 20.6527 9.73852 20.3975L11.4149 18.7035C11.4919 18.6265 11.5975 18.5825 11.7075 18.5825H21.9639C22.3269 18.5825 22.5095 19.0159 22.2521 19.2711L20.5383 20.9629ZM20.2501 14.6731C20.3579 14.6731 20.4613 14.7149 20.5383 14.7919L22.2521 16.4859C22.5095 16.7389 22.3269 17.1745 21.9639 17.1745H11.7075C11.5975 17.1745 11.4919 17.1305 11.4149 17.0535L9.73852 15.3595C9.48552 15.1043 9.66812 14.6753 10.0311 14.6753L20.2501 14.6731Z" fill="#00FFAD"/>
<path d="M16 5C22.0742 5 27 9.9258 27 16C27 22.0742 22.0742 27 16 27C9.9258 27 5 22.0742 5 16C5 9.9258 9.9258 5 16 5Z" fill="black"/>
<path fill-rule="evenodd" clip-rule="evenodd" d="M10.0857 14.9507H20.2651C20.3927 14.9507 20.5137 15.0013 20.6017 15.0915L22.2121 16.7129C22.5091 17.0121 22.2979 17.5225 21.8755 17.5225H11.6961C11.5685 17.5225 11.4475 17.4719 11.3595 17.3817L9.74909 15.7603C9.44989 15.4611 9.66329 14.9507 10.0857 14.9507ZM9.74909 12.8013L11.3595 11.1799C11.4497 11.0897 11.5707 11.0391 11.6961 11.0391H21.8733C22.2957 11.0391 22.5091 11.5495 22.2099 11.8487L20.6017 13.4701C20.5115 13.5603 20.3905 13.6109 20.2651 13.6109H10.0857C9.66329 13.6109 9.44989 13.1005 9.74909 12.8013ZM22.2099 19.6719L20.5995 21.2933C20.5093 21.3835 20.3883 21.4341 20.2629 21.4341H10.0857C9.66329 21.4341 9.44989 20.9237 9.74909 20.6245L11.3595 19.0031C11.4497 18.9129 11.5707 18.8623 11.6961 18.8623H21.8733C22.2957 18.8623 22.5091 19.3727 22.2099 19.6719Z" fill="url(#paint0_linear)"/>
<defs>
<linearGradient id="paint0_linear" x1="10.3347" y1="21.8813" x2="21.6243" y2="10.5918" gradientUnits="userSpaceOnUse">
<stop stop-color="#CB4EE8"/>
<stop offset="1" stop-color="#10F4B1"/>
</linearGradient>
</defs>
</svg>
