<svg width="32" height="32" viewBox="0 0 32 32" fill="none" xmlns="http://www.w3.org/2000/svg">
<path d="M0.846897 10.0333C1.33368 5.04792 5.31806 1.17702 10.3175 0.77696C12.3315 0.615794 14.3889 0.5 16.1381 0.5C17.8062 0.5 19.7546 0.605291 21.6787 0.754869C26.8047 1.15334 30.8446 5.20251 31.2405 10.3297C31.3924 12.2968 31.5 14.2936 31.5 16C31.5 17.7007 31.3931 19.69 31.242 21.6509C30.8462 26.7866 26.7941 30.8388 21.6583 31.2383C19.6883 31.3915 17.6935 31.5 16 31.5C14.2759 31.5 12.2653 31.3875 10.2968 31.23C5.30742 30.8306 1.33566 26.9629 0.848804 21.9862C0.646457 19.9178 0.5 17.7977 0.5 16C0.5 14.208 0.645534 12.0956 0.846897 10.0333Z" fill="white" stroke="#EBEEF2"/>
<path d="M20.7031 10.3624L8 8L14.6853 25L24 13.5311L20.7031 10.3624ZM20.4987 11.4034L22.4418 13.2699L17.127 14.2425L20.4987 11.4034ZM15.973 14.048L10.371 9.35284L19.5268 11.0553L15.973 14.048ZM15.5737 14.8783L14.6605 22.5097L9.73553 9.98463L15.5737 14.8783ZM16.4192 15.2834L22.3043 14.2063L15.5537 22.5178L16.4192 15.2834Z" fill="#FF3155"/>
</svg>
