<svg width="32" height="32" viewBox="0 0 32 32" fill="none" xmlns="http://www.w3.org/2000/svg">
<path d="M0.846897 10.0333C1.33368 5.04792 5.31806 1.17702 10.3175 0.77696C12.3315 0.615794 14.3889 0.5 16.1381 0.5C17.8062 0.5 19.7546 0.605291 21.6787 0.754869C26.8047 1.15334 30.8446 5.20251 31.2405 10.3297C31.3924 12.2968 31.5 14.2936 31.5 16C31.5 17.7007 31.3931 19.69 31.242 21.6509C30.8462 26.7866 26.7941 30.8388 21.6583 31.2383C19.6883 31.3915 17.6935 31.5 16 31.5C14.2759 31.5 12.2653 31.3875 10.2968 31.23C5.30742 30.8306 1.33566 26.9629 0.848804 21.9862C0.646457 19.9178 0.5 17.7977 0.5 16C0.5 14.208 0.645534 12.0956 0.846897 10.0333Z" fill="white" stroke="#EBEEF2"/>
<path d="M19.8896 17.5229C19.8156 17.2937 19.7251 17.0946 19.6199 16.9256C19.5146 16.7565 19.3626 16.5911 19.1652 16.4293C18.9683 16.2676 18.7907 16.1379 18.6336 16.0389C18.4766 15.9399 18.2609 15.8294 17.986 15.707C17.7117 15.5847 17.4944 15.4934 17.3344 15.4338C17.1745 15.3741 16.9429 15.2917 16.6396 15.1875C16.371 15.0936 16.1707 15.0221 16.0392 14.9728C15.9078 14.9236 15.7348 14.853 15.5202 14.7618C15.3057 14.6705 15.1458 14.5901 15.0399 14.5196C14.9341 14.4491 14.8214 14.3636 14.7013 14.2619C14.5813 14.1603 14.497 14.0524 14.4481 13.9379C14.3991 13.8233 14.3752 13.6983 14.3752 13.563C14.3752 13.2088 14.5465 12.9195 14.8897 12.696C15.2328 12.4725 15.6756 12.36 16.2191 12.36C16.4592 12.36 16.7039 12.3901 16.952 12.4497C17.2001 12.5093 17.4135 12.5773 17.5905 12.653C17.7681 12.7287 17.9348 12.8116 18.0925 12.9029C18.2501 12.9941 18.3611 13.0631 18.4271 13.1098C18.4931 13.157 18.5346 13.1881 18.5511 13.2036C18.6257 13.2555 18.7025 13.2741 18.7827 13.2581C18.8687 13.2529 18.9341 13.2109 18.9802 13.1331L19.6751 11.9924C19.7433 11.8881 19.7291 11.7891 19.6324 11.6958C19.5982 11.6647 19.5556 11.6284 19.5032 11.5864C19.452 11.5444 19.3404 11.4692 19.1686 11.3598C18.9967 11.2504 18.8158 11.1529 18.6245 11.0668C18.4328 10.9807 18.1841 10.8936 17.8785 10.805C17.5729 10.7163 17.2571 10.6567 16.931 10.625V9.24993C16.931 9.17733 16.9054 9.11719 16.8541 9.07C16.8029 9.02281 16.7369 9 16.6567 9H15.4992C15.4246 9 15.3609 9.02489 15.3063 9.07415C15.2516 9.12341 15.2249 9.182 15.2249 9.24993V10.6561C14.3274 10.8122 13.5985 11.1612 13.0385 11.703C12.4785 12.2449 12.198 12.8749 12.198 13.5936C12.198 13.8072 12.2224 14.0104 12.2708 14.2028C12.3192 14.3952 12.3795 14.5689 12.4506 14.7224C12.5218 14.8759 12.6236 15.0273 12.7551 15.1756C12.8865 15.3239 13.0112 15.4519 13.1278 15.5582C13.2451 15.665 13.3981 15.7755 13.5865 15.8901C13.7749 16.0047 13.9365 16.097 14.0708 16.1675C14.2051 16.2375 14.3838 16.3184 14.6069 16.4096C14.8299 16.5009 15.0058 16.5699 15.1344 16.6165C15.263 16.6632 15.4389 16.7285 15.6619 16.8115C15.9704 16.9209 16.1991 17.0054 16.3477 17.0656C16.4962 17.1257 16.6851 17.2087 16.9139 17.3155C17.1427 17.4223 17.3094 17.5198 17.4153 17.6084C17.5211 17.6971 17.6167 17.8065 17.7026 17.9367C17.7886 18.0668 17.8312 18.2047 17.8312 18.351C17.8312 18.7627 17.6554 19.08 17.3037 19.304C16.952 19.528 16.5446 19.64 16.0819 19.64C15.8708 19.64 15.6591 19.6193 15.4474 19.5778C14.7042 19.4419 14.0099 19.1168 13.364 18.6009L13.3469 18.5853C13.2951 18.5283 13.2269 18.5044 13.1409 18.5153C13.0493 18.5257 12.9839 18.5568 12.9435 18.6092L12.0602 19.6639C11.9743 19.7681 11.9806 19.8749 12.0773 19.9843C12.1058 20.0154 12.1559 20.0626 12.2276 20.1248C12.2993 20.187 12.4319 20.285 12.6265 20.4183C12.8205 20.551 13.0322 20.676 13.261 20.7932C13.4898 20.9104 13.78 21.026 14.1311 21.1406C14.4828 21.2552 14.847 21.3356 15.2243 21.3827V22.7501C15.2243 22.818 15.2516 22.8766 15.3057 22.9259C15.3598 22.9751 15.4246 23 15.4986 23H16.6561C16.7363 23 16.8018 22.9767 16.8536 22.93C16.9054 22.8833 16.9304 22.8232 16.9304 22.7501V21.3827C17.8398 21.2474 18.5784 20.8917 19.147 20.3161C19.7155 19.7406 20 19.0546 20 18.2576C19.9994 17.9973 19.9624 17.7526 19.8873 17.5234L19.8896 17.5229Z" fill="#070A0E"/>
</svg>
