<svg width="32" height="32" viewBox="0 0 32 32" fill="none" xmlns="http://www.w3.org/2000/svg">
<g clip-path="url(#clip0_12547_1478)">
<path d="M0.846897 10.0333C1.33368 5.04792 5.31806 1.17702 10.3175 0.77696C12.3315 0.615794 14.3889 0.5 16.1381 0.5C17.8062 0.5 19.7546 0.605291 21.6787 0.754869C26.8047 1.15334 30.8446 5.20251 31.2405 10.3297C31.3924 12.2968 31.5 14.2936 31.5 16C31.5 17.7007 31.3931 19.69 31.242 21.6509C30.8462 26.7866 26.7941 30.8388 21.6583 31.2383C19.6883 31.3915 17.6935 31.5 16 31.5C14.2759 31.5 12.2653 31.3875 10.2968 31.23C5.30742 30.8306 1.33566 26.9629 0.848804 21.9862C0.646457 19.9178 0.5 17.7977 0.5 16C0.5 14.208 0.645534 12.0956 0.846897 10.0333Z" fill="white" stroke="#EBEEF2"/>
<path d="M16 27C22.0751 27 27 22.0751 27 16C27 9.92487 22.0751 5 16 5C9.92487 5 5 9.92487 5 16C5 22.0751 9.92487 27 16 27Z" fill="#121212"/>
<path fill-rule="evenodd" clip-rule="evenodd" d="M16.2366 7.13725L16.002 7L8.00444 11.4999V11.7675L8 11.7719V20.2437L8.00444 20.2481V20.4998L16.002 25L16.233 24.8721L23.7614 20.6362L24 20.4998V11.4999L23.765 11.3731L16.2366 7.13725ZM15.1934 8.22273L9.48657 11.4341H13.291L15.1934 8.22273ZM13.2061 12.1094H8.69308V19.906H13.2061V12.1094ZM13.2905 20.5812H9.51368L15.1792 23.7688L13.2905 20.5812ZM23.3176 19.2119V12.8041L21.4196 16.0079L23.3176 19.2119ZM20.862 15.5983L23.1185 11.7892L16.1904 7.89107L13.9339 11.7L20.862 15.5983ZM13.8992 12.4603V19.5469L20.1965 16.0036L13.8992 12.4603ZM20.858 16.411L13.9299 20.3093L16.1864 24.1185L23.1145 20.2201L20.858 16.411Z" fill="url(#paint0_linear_12547_1478)"/>
</g>
<defs>
<linearGradient id="paint0_linear_12547_1478" x1="12.2014" y1="26.7505" x2="9.13743" y2="7.09088" gradientUnits="userSpaceOnUse">
<stop stop-color="#0CFFF0"/>
<stop offset="1" stop-color="#0CFFA7"/>
</linearGradient>
<clipPath id="clip0_12547_1478">
<rect width="32" height="32" fill="white"/>
</clipPath>
</defs>
</svg>
